<svg xmlns="http://www.w3.org/2000/svg" viewBox="0 0 700 700"><path class="a" d="M600.69,227.9l-4.35-31.24a1.46,1.46,0,0,0-.05-.2.61.61,0,0,0,0-.13,2,2,0,0,0-.15-.41l0,0a2.07,2.07,0,0,0-.19-.32l-.09-.11a2.2,2.2,0,0,0-.2-.23l-.11-.1a2.13,2.13,0,0,0-.34-.25l0,0a2.32,2.32,0,0,0-.39-.18l-.05,0-35.35-12.29c-.9,1.45-1.83,2.89-2.76,4.33l33.29,11.58c-23.12,32.06-54,59.76-91.86,82.33-35.13,20.94-77.24,38.05-125.16,50.87-78.09,20.89-172.28,31-288,31a2.5,2.5,0,0,0-2.5,2.5v19a2.5,2.5,0,0,0,2.5,2.5c142.36,0,253.28-13.65,339.07-41.72,77.56-25.38,135.21-63,176.25-115A2.47,2.47,0,0,0,600.69,227.9Z"/></svg>