<svg xmlns="http://www.w3.org/2000/svg" viewBox="0 0 700 700"><path d="M512,97.77l-13-23a.86.86,0,0,0-.07-.1l-.09-.13a1.59,1.59,0,0,0-.2-.24l-.08-.09a2.16,2.16,0,0,0-.33-.27l-.09-.06c-.1,0-.19-.11-.29-.15l-.13-.06-.33-.1-.09,0a2.31,2.31,0,0,0-.46,0h0l-151.57.68a2.52,2.52,0,0,0-2,1.08C305.38,130,226.3,163.93,136.86,163.93a2.49,2.49,0,0,0-2.36,1.68l-52,150.57c0,.05,0,.1,0,.15l-.06.26,0,.26s0,.1,0,.15v19a2.5,2.5,0,0,0,2.5,2.5c112.1,0,212.48-25.15,290.3-72.74,69.51-42.5,118.2-101.48,137.1-166.06A2.5,2.5,0,0,0,512,97.77ZM340.31,255.05C269.44,292.9,180.1,314,88.38,314.48l50.26-145.56c89.75-.45,169.16-34.72,208-89.74l146.92-.66C472.12,151.89,419.23,212.88,340.31,255.05Z"/></svg>